<svg xmlns="http://www.w3.org/2000/svg" xmlns:svg="http://www.w3.org/2000/svg" xmlns:xlink="http://www.w3.org/1999/xlink" id="svg3851" width="77.813" height="65.825" version="1.1" viewBox="0 0 20.588 17.416"><metadata id="metadata3855"/><defs id="defs3783"><linearGradient id="SVGID_1_" x1="675.27" x2="707.74" y1="88.3" y2="88.3" gradientTransform="matrix(0.26458,0,0,0.26458,-179.34646,261.28646)" gradientUnits="userSpaceOnUse"><stop id="stop3778" offset="0" stop-color="#ff4081" stop-opacity=".941"/><stop id="stop3780" offset="1" stop-color="#131313"/></linearGradient><linearGradient id="2" x1="396.64" x2="394.41" y1="546.11" y2="538.61" gradientTransform="matrix(0.71308228,0,0,0.71691205,-280.60594,-94.816757)" gradientUnits="userSpaceOnUse"><stop id="stop5184" stop-color="#b7d7e1"/><stop id="stop5186" offset="1" stop-color="#fff"/></linearGradient><linearGradient id="1" x1="393.83" x2="390.45" y1="549.46" y2="542.88" gradientTransform="matrix(0.45111156,0,0,0.45353436,-179.31551,50.009071)" gradientUnits="userSpaceOnUse"><stop id="stop5179" stop-color="#c3e6ee"/><stop id="stop5181" offset="1" stop-color="#fff"/></linearGradient><linearGradient id="0" x1="393.83" x2="395.79" y1="549.46" y2="542.83" gradientTransform="matrix(-0.59937345,0,0,0.60259335,245.86106,-30.678204)" gradientUnits="userSpaceOnUse"><stop id="stop5174" stop-color="#c8e1e8"/><stop id="stop5176" offset="1" stop-color="#fff"/></linearGradient><linearGradient id="linearGradient5276" x1="675.27" x2="707.74" y1="88.3" y2="88.3" gradientTransform="matrix(0.26458,0,0,0.26458,-179.34646,261.28646)" gradientUnits="userSpaceOnUse" xlink:href="#SVGID_1_"/></defs><g id="g3849" transform="translate(5.7515037,-283.32597)"><path id="path5191" fill="url(#2)" stroke-width=".343" d="m -1.1904367,292.97168 c -0.299931,-0.23541 -0.6770741,-0.37577 -1.0861321,-0.37577 -0.96362,0 -1.7477619,0.77728 -1.7724709,1.7457 -0.994505,0.37715 -1.702464,1.34763 -1.702464,2.48489 0,1.34386 0.987985,2.45401 2.2693799,2.62937 v 0.024 H 5.595054 v -0.004 c 1.265609,-0.0741 2.2693798,-1.13555 2.2693798,-2.4341 0,-1.25223 -0.9334208,-2.2838 -2.1352008,-2.42278 0.0048,-0.0762 0.0076,-0.1534 0.0076,-0.23095 0,-1.94063 -1.6194168,-3.51372 -3.6166637,-3.51372 -1.47837401,0 -2.74878801,0.86205 -3.310556,2.09677"/><g id="g5271" transform="translate(0.795721,0.02191)"><polygon id="polygon3805" fill="#567b03" points="671.3 126.2 671.8 120.3 674.2 125.4 673.7 131.3" class="st9" transform="matrix(0.26458,0,0,0.26458,-179.32,261.26)"/><polygon id="polygon3807" fill="#231815" points="671.3 126.2 671.8 120.3 674.2 125.4 673.7 131.3" class="st10" transform="matrix(0.26458,0,0,0.26458,-179.32,261.26)"/><g id="g3813" class="st11" transform="matrix(0.26458,0,0,0.26458,-179.32,261.26)"><path id="path3809" fill="#567b03" d="m 670.8,127.3 -2.4,-5.1 c 0.3,-1.9 6.9,-37.6 6.8,-37.9 l 2.4,5.1 c 0.2,0.4 -6.4,36.1 -6.8,37.9" class="st9"/><path id="path3811" fill="#580024" fill-opacity=".941" d="m 670.8,127.3 -2.4,-5.1 c 0.3,-1.9 6.9,-37.6 6.8,-37.9 l 2.4,5.1 c 0.2,0.4 -6.4,36.1 -6.8,37.9" class="st10"/></g><path id="path3815" fill="#ff4081" fill-opacity="1" stroke-width=".265" d="m 9.695952,294.54416 -0.899572,-0.44978 0.13229,1.56102 c -1.45519,0.13229 -5.000562,0.52916 -5.000562,1.95789 0,-1.42873 -3.545372,-1.58748 -5.000562,-1.61394 l 0.13229,-1.56102 -0.899572,0.52916 c 0.079374,-0.5027 1.82185242,-9.98946 1.79539442,-10.06883 0.52916,0.92603 2.72892358,1.12603 3.97244958,1.07311 1.243526,-0.0529 3.43954,-0.34395 3.9687,-1.29644 0,0.0794 1.71977,9.39259 1.799144,9.86883 z" class="st12"/><path id="path3817" fill="url(#linearGradient5276)" stroke-width=".265" d="m -0.040592,284.93991 -0.634992,-1.34936 c 0.52916,0.92603 2.725174,1.08478 3.9687,1.03187 1.243526,-0.0529 3.43954,-0.34396 3.9687,-1.29645 l 0.634992,1.34936 c -0.52916,0.97895 -2.725174,1.26999 -3.9687,1.29644 -1.243526,0.0529 -3.43954,-0.10583 -3.9687,-1.03186 z" class="st13"/><path id="path3829" fill="#fff" stroke-width=".265" d="m 5.727252,286.8978 c -1.005404,0 -1.825602,0.8202 -1.825602,1.8256 0,-1.0054 -0.820198,-1.8256 -1.799144,-1.8256 -0.978946,0 -1.799144,0.8202 -1.799144,1.8256 0,1.00541 0.820198,1.82561 1.799144,1.82561 0.502702,0 0.952488,-0.21167 1.296442,-0.52916 l 0.52916,1.69331 0.52916,-1.69331 c 0.317496,0.34395 0.79374,0.52916 1.296442,0.52916 1.005404,0 1.825602,-0.8202 1.825602,-1.82561 -0.026458,-1.03186 -0.846656,-1.8256 -1.85206,-1.8256 z" class="st6"/><g id="g3835" fill="#231815" transform="matrix(0.26458,0,0,0.26458,-179.32,261.26)"><circle id="circle3831" cx="699.4" cy="103.7" r="4.1" class="st10"/><circle id="circle3833" cx="685.7" cy="103.7" r="4.1" class="st10"/></g><g id="g3841" fill="#fff" transform="matrix(0.26458,0,0,0.26458,-179.32,261.26)"><path id="path3837" d="m 699.7,122.7 -3.3,3.3 -3.3,-3.3 c -0.2,-0.2 -0.6,-0.2 -0.8,0 l -3.3,3.3 -3.3,-3.3 c -0.2,-0.2 -0.6,-0.2 -0.8,0 -0.2,0.2 -0.2,0.6 0,0.8 l 3.7,3.7 c 0.2,0.2 0.6,0.2 0.8,0 l 3.3,-3.3 3.3,3.3 c 0.1,0.1 0.3,0.2 0.4,0.2 0.2,0 0.3,-0.1 0.4,-0.2 l 3.7,-3.7 c 0.2,-0.2 0.2,-0.6 0,-0.8 -0.2,-0.2 -0.6,-0.2 -0.8,0 z" class="st6"/><path id="path3839" d="m 704.2,116.4 c -0.2,-0.2 -0.6,-0.2 -0.8,0 l -3.3,3.3 -3.3,-3.3 c -0.2,-0.2 -0.6,-0.2 -0.8,0 l -3.3,3.3 -3.3,-3.3 c -0.2,-0.2 -0.6,-0.2 -0.8,0 l -3.3,3.3 -3.3,-3.3 c -0.2,-0.2 -0.6,-0.2 -0.8,0 -0.2,0.2 -0.2,0.6 0,0.8 l 3.7,3.7 c 0.2,0.2 0.6,0.2 0.8,0 l 3.3,-3.3 3.3,3.3 c 0.1,0.1 0.3,0.2 0.4,0.2 0.2,0 0.3,-0.1 0.4,-0.2 l 3.3,-3.3 3.3,3.3 c 0.2,0.2 0.6,0.2 0.8,0 l 3.7,-3.7 c 0.2,-0.2 0.2,-0.5 0,-0.8 z" class="st6"/></g><circle id="circle3843" cx="5.727" cy="288.697" r="1.587" fill="none" stroke-width=".265" class="st16"/></g><path id="path5193" fill="url(#1)" stroke-width=".217" d="m -2.5511142,295.33257 c -0.189742,-0.14893 -0.428331,-0.23772 -0.68711,-0.23772 -0.6096081,0 -1.105673,0.49172 -1.121304,1.10437 -0.629146,0.23859 -1.077017,0.85253 -1.077017,1.57199 0,0.85015 0.625021,1.55246 1.4356599,1.6634 v 0.0152 h 5.7424231 v -0.003 c 0.800652,-0.0469 1.435659,-0.71837 1.435659,-1.53986 0,-0.79219 -0.590502,-1.44478 -1.350775,-1.53271 0.003,-0.0482 0.0048,-0.097 0.0048,-0.1461 0,-1.22768 -1.024479,-2.22285 -2.28798204,-2.22285 -0.93525196,0 -1.73894386,0.54534 -2.09433096,1.32646"/><path id="path5195" fill="url(#0)" stroke-width=".282" d="m 11.002773,295.27147 c 0.252287,-0.1981 0.570045,-0.31578 0.912918,-0.31578 0.809914,0 1.468852,0.6533 1.489735,1.46744 0.836159,0.3172 1.431037,1.13163 1.431037,2.08885 0,1.1288 -0.830233,2.06288 -1.907391,2.20991 v 0.0203 H 5.298379 v -0.004 c -1.063895,-0.0624 -1.907391,-0.9544 -1.907391,-2.04595 0,-1.05261 0.784516,-1.91953 1.794793,-2.03608 -0.0042,-0.0641 -0.0065,-0.12896 -0.0065,-0.19415 0,-1.63112 1.361052,-2.95351 3.040143,-2.95351 1.2428086,0 2.311219,0.72441 2.782776,1.76234"/></g></svg>